# xmcd
#
# Track frame offsets:
#	150
#	12361
#	16252
#	26738
#	31330
#	35944
#	39793
#	53306
#	63111
#	77881
#	91975
#	103170
#	114195
#	129576
#	141547
#	153900
#	169241
#	183142
#	194417
#	205463
#	211485
#	236441
#	249628
#	260998
#	278198
#	294216
#	307936
#	310254
#	314940
#	317385
#
# Disc length: 4441 seconds
#
# Revision: 1
# Processed by: cddbd v1.5.2PL0 Copyright (c) Steve Scherf et al.
# Submitted via: audiograbber 1.83.01
#
DISCID=a811571e
DTITLE=Johnny Cash - Far Side Banks Of Jordan
DYEAR=1900
DGENRE=Country
TTITLE0=Far Side Banks Of Jordan (w.June Carter-Cash)
TTITLE1=Intro Story
TTITLE2=Far Side Banks Of Jordan (w.June Carter-Cash)
TTITLE3=The Old Rugged Cross (w.June Carter-Cash)
TTITLE4=I Won´t Have To Cross Jordan Alone
TTITLE5=Fisher´s Of Man (w.June Carter-Cash)
TTITLE6=When I Look (w.June Carter-Cash)
TTITLE7=Over The Next Hill
TTITLE8=In The Garden
TTITLE9=Return To The Promised Land (w.June Carter-Cash)
TTITLE10=(I Put It In) God´s Hand
TTITLE11=The Old Rugged Cross (w.Jessi Colter)
TTITLE12=I Washed My Face In The Morning Dew
TTITLE13=Diana, Queen Of The Heart (w.Tommy Cash)
TTITLE14=I Walk The Line (Revisited, w.Rodney Crowell)
TTITLE15=Country Ladies (w.June Carter-Cash)
TTITLE16=Heroes In Black and White
TTITLE17=The Shifting, Whispering Sands (w.Lorne Greene)
TTITLE18=Let Me Help You (w.June Carter-Cash)
TTITLE19=The Pilgrim (Outro)
TTITLE20=Man In White (New Version)
TTITLE21=Mama, You´ve Been On My Mind
TTITLE22=I´m Movin´ Up
TTITLE23=Hardin Wouldn´t Run
TTITLE24=The Song Of The Coward
TTITLE25=Jamaica Farewell
TTITLE26=Jingle: Foldiers Aroma
TTITLE27=Jingle: Pepsi Cola
TTITLE28=Jingle: Pepsi Cola
TTITLE29=Amazing Grace (w.Evangle Temple Choir)
EXTD=
EXTT0=
EXTT1=
EXTT2=
EXTT3=
EXTT4=
EXTT5=
EXTT6=
EXTT7=
EXTT8=
EXTT9=
EXTT10=
EXTT11=
EXTT12=
EXTT13=
EXTT14=
EXTT15=
EXTT16=
EXTT17=
EXTT18=
EXTT19=
EXTT20=
EXTT21=
EXTT22=
EXTT23=
EXTT24=
EXTT25=
EXTT26=
EXTT27=
EXTT28=
EXTT29=
PLAYORDER=
